<svg xmlns="http://www.w3.org/2000/svg" xmlns:xlink="http://www.w3.org/1999/xlink" width="600" height="400" viewBox="0 0 2400 1600">
<defs>
  <clipPath id="clip380">
    <rect x="0" y="0" width="2400" height="1600"></rect>
  </clipPath>
</defs>
<path clip-path="url(#clip380)" d="M0 1600 L2400 1600 L2400 0 L0 0  Z" fill="#ffffff" fill-rule="evenodd" fill-opacity="1"></path>
<defs>
  <clipPath id="clip381">
    <rect x="480" y="0" width="1681" height="1600"></rect>
  </clipPath>
</defs>
<defs>
  <clipPath id="clip382">
    <rect x="283" y="47" width="2070" height="1368"></rect>
  </clipPath>
</defs>
<path clip-path="url(#clip380)" d="M283.94 1414.54 L2352.76 1414.54 L2352.76 47.2441 L283.94 47.2441  Z" fill="#ffffff" fill-rule="evenodd" fill-opacity="1"></path>
<polyline clip-path="url(#clip382)" style="stroke:#000000; stroke-linecap:round; stroke-linejoin:round; stroke-width:2; stroke-opacity:0.1; fill:none" points="340.425,1414.54 340.425,47.2441 "></polyline>
<polyline clip-path="url(#clip382)" style="stroke:#000000; stroke-linecap:round; stroke-linejoin:round; stroke-width:2; stroke-opacity:0.1; fill:none" points="829.386,1414.54 829.386,47.2441 "></polyline>
<polyline clip-path="url(#clip382)" style="stroke:#000000; stroke-linecap:round; stroke-linejoin:round; stroke-width:2; stroke-opacity:0.1; fill:none" points="1318.35,1414.54 1318.35,47.2441 "></polyline>
<polyline clip-path="url(#clip382)" style="stroke:#000000; stroke-linecap:round; stroke-linejoin:round; stroke-width:2; stroke-opacity:0.1; fill:none" points="1807.31,1414.54 1807.31,47.2441 "></polyline>
<polyline clip-path="url(#clip382)" style="stroke:#000000; stroke-linecap:round; stroke-linejoin:round; stroke-width:2; stroke-opacity:0.1; fill:none" points="2296.27,1414.54 2296.27,47.2441 "></polyline>
<polyline clip-path="url(#clip380)" style="stroke:#000000; stroke-linecap:round; stroke-linejoin:round; stroke-width:4; stroke-opacity:1; fill:none" points="283.94,1414.54 2352.76,1414.54 "></polyline>
<polyline clip-path="url(#clip380)" style="stroke:#000000; stroke-linecap:round; stroke-linejoin:round; stroke-width:4; stroke-opacity:1; fill:none" points="340.425,1414.54 340.425,1395.64 "></polyline>
<polyline clip-path="url(#clip380)" style="stroke:#000000; stroke-linecap:round; stroke-linejoin:round; stroke-width:4; stroke-opacity:1; fill:none" points="829.386,1414.54 829.386,1395.64 "></polyline>
<polyline clip-path="url(#clip380)" style="stroke:#000000; stroke-linecap:round; stroke-linejoin:round; stroke-width:4; stroke-opacity:1; fill:none" points="1318.35,1414.54 1318.35,1395.64 "></polyline>
<polyline clip-path="url(#clip380)" style="stroke:#000000; stroke-linecap:round; stroke-linejoin:round; stroke-width:4; stroke-opacity:1; fill:none" points="1807.31,1414.54 1807.31,1395.64 "></polyline>
<polyline clip-path="url(#clip380)" style="stroke:#000000; stroke-linecap:round; stroke-linejoin:round; stroke-width:4; stroke-opacity:1; fill:none" points="2296.27,1414.54 2296.27,1395.64 "></polyline>
<path clip-path="url(#clip380)" d="M340.425 1448.39 Q335.911 1448.39 333.625 1452.84 Q331.368 1457.27 331.368 1466.18 Q331.368 1475.07 333.625 1479.52 Q335.911 1483.95 340.425 1483.95 Q344.968 1483.95 347.225 1479.52 Q349.51 1475.07 349.51 1466.18 Q349.51 1457.27 347.225 1452.84 Q344.968 1448.39 340.425 1448.39 M340.425 1443.76 Q347.687 1443.76 351.507 1449.52 Q355.355 1455.25 355.355 1466.18 Q355.355 1477.09 351.507 1482.85 Q347.687 1488.58 340.425 1488.58 Q333.162 1488.58 329.314 1482.85 Q325.494 1477.09 325.494 1466.18 Q325.494 1455.25 329.314 1449.52 Q333.162 1443.76 340.425 1443.76 Z" fill="#000000" fill-rule="nonzero" fill-opacity="1"></path><path clip-path="url(#clip380)" d="M817.234 1444.54 L840.179 1444.54 L840.179 1449.46 L822.587 1449.46 L822.587 1460.05 Q823.86 1459.61 825.133 1459.41 Q826.406 1459.18 827.679 1459.18 Q834.913 1459.18 839.137 1463.15 Q843.362 1467.11 843.362 1473.88 Q843.362 1480.85 839.022 1484.73 Q834.681 1488.58 826.782 1488.58 Q824.062 1488.58 821.227 1488.12 Q818.42 1487.65 815.411 1486.73 L815.411 1480.85 Q818.015 1482.27 820.793 1482.97 Q823.57 1483.66 826.666 1483.66 Q831.672 1483.66 834.595 1481.03 Q837.517 1478.39 837.517 1473.88 Q837.517 1469.37 834.595 1466.73 Q831.672 1464.1 826.666 1464.1 Q824.323 1464.1 821.979 1464.62 Q819.664 1465.14 817.234 1466.24 L817.234 1444.54 Z" fill="#000000" fill-rule="nonzero" fill-opacity="1"></path><path clip-path="url(#clip380)" d="M1286.71 1482.82 L1296.26 1482.82 L1296.26 1449.86 L1285.87 1451.95 L1285.87 1446.62 L1296.2 1444.54 L1302.04 1444.54 L1302.04 1482.82 L1311.59 1482.82 L1311.59 1487.74 L1286.71 1487.74 L1286.71 1482.82 Z" fill="#000000" fill-rule="nonzero" fill-opacity="1"></path><path clip-path="url(#clip380)" d="M1335.9 1448.39 Q1331.38 1448.39 1329.1 1452.84 Q1326.84 1457.27 1326.84 1466.18 Q1326.84 1475.07 1329.1 1479.52 Q1331.38 1483.95 1335.9 1483.95 Q1340.44 1483.95 1342.7 1479.52 Q1344.98 1475.07 1344.98 1466.18 Q1344.98 1457.27 1342.7 1452.84 Q1340.44 1448.39 1335.9 1448.39 M1335.9 1443.76 Q1343.16 1443.76 1346.98 1449.52 Q1350.83 1455.25 1350.83 1466.18 Q1350.83 1477.09 1346.98 1482.85 Q1343.16 1488.58 1335.9 1488.58 Q1328.63 1488.58 1324.79 1482.85 Q1320.97 1477.09 1320.97 1466.18 Q1320.97 1455.25 1324.79 1449.52 Q1328.63 1443.76 1335.9 1443.76 Z" fill="#000000" fill-rule="nonzero" fill-opacity="1"></path><path clip-path="url(#clip380)" d="M1776.29 1482.82 L1785.84 1482.82 L1785.84 1449.86 L1775.45 1451.95 L1775.45 1446.62 L1785.78 1444.54 L1791.63 1444.54 L1791.63 1482.82 L1801.18 1482.82 L1801.18 1487.74 L1776.29 1487.74 L1776.29 1482.82 Z" fill="#000000" fill-rule="nonzero" fill-opacity="1"></path><path clip-path="url(#clip380)" d="M1813.04 1444.54 L1835.98 1444.54 L1835.98 1449.46 L1818.39 1449.46 L1818.39 1460.05 Q1819.66 1459.61 1820.94 1459.41 Q1822.21 1459.18 1823.48 1459.18 Q1830.72 1459.18 1834.94 1463.15 Q1839.17 1467.11 1839.17 1473.88 Q1839.17 1480.85 1834.83 1484.73 Q1830.49 1488.58 1822.59 1488.58 Q1819.87 1488.58 1817.03 1488.12 Q1814.23 1487.65 1811.22 1486.73 L1811.22 1480.85 Q1813.82 1482.27 1816.6 1482.97 Q1819.38 1483.66 1822.47 1483.66 Q1827.48 1483.66 1830.4 1481.03 Q1833.32 1478.39 1833.32 1473.88 Q1833.32 1469.37 1830.4 1466.73 Q1827.48 1464.1 1822.47 1464.1 Q1820.13 1464.1 1817.78 1464.62 Q1815.47 1465.14 1813.04 1466.24 L1813.04 1444.54 Z" fill="#000000" fill-rule="nonzero" fill-opacity="1"></path><path clip-path="url(#clip380)" d="M2269.74 1482.82 L2290.14 1482.82 L2290.14 1487.74 L2262.71 1487.74 L2262.71 1482.82 Q2266.03 1479.38 2271.76 1473.59 Q2277.52 1467.77 2279 1466.1 Q2281.8 1462.94 2282.9 1460.77 Q2284.03 1458.57 2284.03 1456.46 Q2284.03 1453.02 2281.6 1450.85 Q2279.2 1448.68 2275.32 1448.68 Q2272.57 1448.68 2269.51 1449.63 Q2266.47 1450.59 2263 1452.53 L2263 1446.62 Q2266.53 1445.21 2269.59 1444.48 Q2272.66 1443.76 2275.21 1443.76 Q2281.92 1443.76 2285.91 1447.12 Q2289.91 1450.47 2289.91 1456.08 Q2289.91 1458.75 2288.89 1461.15 Q2287.91 1463.52 2285.28 1466.76 Q2284.55 1467.6 2280.68 1471.62 Q2276.8 1475.62 2269.74 1482.82 Z" fill="#000000" fill-rule="nonzero" fill-opacity="1"></path><path clip-path="url(#clip380)" d="M2314.91 1448.39 Q2310.39 1448.39 2308.11 1452.84 Q2305.85 1457.27 2305.85 1466.18 Q2305.85 1475.07 2308.11 1479.52 Q2310.39 1483.95 2314.91 1483.95 Q2319.45 1483.95 2321.7 1479.52 Q2323.99 1475.07 2323.99 1466.18 Q2323.99 1457.27 2321.7 1452.84 Q2319.45 1448.39 2314.91 1448.39 M2314.91 1443.76 Q2322.17 1443.76 2325.99 1449.52 Q2329.84 1455.25 2329.84 1466.18 Q2329.84 1477.09 2325.99 1482.85 Q2322.17 1488.58 2314.91 1488.58 Q2307.64 1488.58 2303.79 1482.85 Q2299.97 1477.09 2299.97 1466.18 Q2299.97 1455.25 2303.79 1449.52 Q2307.64 1443.76 2314.91 1443.76 Z" fill="#000000" fill-rule="nonzero" fill-opacity="1"></path><path clip-path="url(#clip380)" d="M1332.52 1533.12 Q1332.52 1534.93 1331.39 1535.96 Q1330.27 1536.96 1328.98 1536.96 Q1327.75 1536.96 1327.11 1536.25 Q1326.47 1535.54 1326.47 1534.64 Q1326.47 1533.41 1327.37 1532.35 Q1328.27 1531.29 1329.62 1531.06 Q1328.3 1530.23 1326.34 1530.23 Q1325.05 1530.23 1323.92 1530.9 Q1322.83 1531.58 1322.15 1532.45 Q1321.51 1533.32 1320.93 1534.57 Q1320.38 1535.8 1320.15 1536.54 Q1319.96 1537.25 1319.8 1538.02 L1317.55 1547.04 Q1316.45 1551.32 1316.45 1552.83 Q1316.45 1554.7 1317.35 1555.96 Q1318.25 1557.18 1320.06 1557.18 Q1320.77 1557.18 1321.57 1556.99 Q1322.38 1556.76 1323.41 1556.18 Q1324.47 1555.57 1325.4 1554.67 Q1326.37 1553.74 1327.3 1552.16 Q1328.24 1550.58 1328.85 1548.55 Q1329.04 1547.84 1329.69 1547.84 Q1330.49 1547.84 1330.49 1548.49 Q1330.49 1549.03 1330.04 1550.19 Q1329.62 1551.32 1328.69 1552.8 Q1327.79 1554.25 1326.6 1555.57 Q1325.4 1556.86 1323.63 1557.76 Q1321.86 1558.66 1319.93 1558.66 Q1317.16 1558.66 1315.32 1557.18 Q1313.49 1555.7 1312.81 1553.64 Q1312.65 1553.93 1312.42 1554.32 Q1312.2 1554.7 1311.52 1555.57 Q1310.88 1556.41 1310.14 1557.05 Q1309.4 1557.66 1308.24 1558.15 Q1307.11 1558.66 1305.89 1558.66 Q1304.34 1558.66 1302.96 1558.21 Q1301.6 1557.76 1300.64 1556.73 Q1299.67 1555.7 1299.67 1554.28 Q1299.67 1552.7 1300.73 1551.61 Q1301.83 1550.48 1303.31 1550.48 Q1304.24 1550.48 1304.99 1551.03 Q1305.76 1551.58 1305.76 1552.77 Q1305.76 1554.09 1304.86 1555.09 Q1303.95 1556.09 1302.67 1556.34 Q1303.99 1557.18 1305.95 1557.18 Q1308.08 1557.18 1309.75 1555.31 Q1311.43 1553.45 1312.23 1550.32 Q1314.23 1542.82 1315 1539.47 Q1315.77 1536.09 1315.77 1534.64 Q1315.77 1533.28 1315.42 1532.35 Q1315.07 1531.42 1314.45 1531 Q1313.87 1530.55 1313.33 1530.39 Q1312.81 1530.23 1312.23 1530.23 Q1311.27 1530.23 1310.17 1530.61 Q1309.11 1531 1307.82 1531.9 Q1306.56 1532.77 1305.37 1534.57 Q1304.18 1536.38 1303.38 1538.86 Q1303.21 1539.6 1302.51 1539.6 Q1301.73 1539.56 1301.73 1538.92 Q1301.73 1538.37 1302.15 1537.25 Q1302.6 1536.09 1303.5 1534.64 Q1304.44 1533.19 1305.63 1531.9 Q1306.85 1530.58 1308.62 1529.68 Q1310.43 1528.78 1312.36 1528.78 Q1313.23 1528.78 1314.07 1528.97 Q1314.94 1529.13 1315.97 1529.61 Q1317.03 1530.1 1317.96 1531.16 Q1318.9 1532.22 1319.48 1533.77 Q1319.86 1533.03 1320.38 1532.32 Q1320.93 1531.61 1321.76 1530.74 Q1322.63 1529.84 1323.83 1529.32 Q1325.05 1528.78 1326.4 1528.78 Q1327.72 1528.78 1329.01 1529.13 Q1330.3 1529.45 1331.39 1530.51 Q1332.52 1531.55 1332.52 1533.12 Z" fill="#000000" fill-rule="nonzero" fill-opacity="1"></path><polyline clip-path="url(#clip382)" style="stroke:#000000; stroke-linecap:round; stroke-linejoin:round; stroke-width:2; stroke-opacity:0.1; fill:none" points="283.94,1375.85 2352.76,1375.85 "></polyline>
<polyline clip-path="url(#clip382)" style="stroke:#000000; stroke-linecap:round; stroke-linejoin:round; stroke-width:2; stroke-opacity:0.1; fill:none" points="283.94,1053.37 2352.76,1053.37 "></polyline>
<polyline clip-path="url(#clip382)" style="stroke:#000000; stroke-linecap:round; stroke-linejoin:round; stroke-width:2; stroke-opacity:0.1; fill:none" points="283.94,730.889 2352.76,730.889 "></polyline>
<polyline clip-path="url(#clip382)" style="stroke:#000000; stroke-linecap:round; stroke-linejoin:round; stroke-width:2; stroke-opacity:0.1; fill:none" points="283.94,408.411 2352.76,408.411 "></polyline>
<polyline clip-path="url(#clip382)" style="stroke:#000000; stroke-linecap:round; stroke-linejoin:round; stroke-width:2; stroke-opacity:0.1; fill:none" points="283.94,85.9334 2352.76,85.9334 "></polyline>
<polyline clip-path="url(#clip380)" style="stroke:#000000; stroke-linecap:round; stroke-linejoin:round; stroke-width:4; stroke-opacity:1; fill:none" points="283.94,1414.54 283.94,47.2441 "></polyline>
<polyline clip-path="url(#clip380)" style="stroke:#000000; stroke-linecap:round; stroke-linejoin:round; stroke-width:4; stroke-opacity:1; fill:none" points="283.94,1375.85 302.838,1375.85 "></polyline>
<polyline clip-path="url(#clip380)" style="stroke:#000000; stroke-linecap:round; stroke-linejoin:round; stroke-width:4; stroke-opacity:1; fill:none" points="283.94,1053.37 302.838,1053.37 "></polyline>
<polyline clip-path="url(#clip380)" style="stroke:#000000; stroke-linecap:round; stroke-linejoin:round; stroke-width:4; stroke-opacity:1; fill:none" points="283.94,730.889 302.838,730.889 "></polyline>
<polyline clip-path="url(#clip380)" style="stroke:#000000; stroke-linecap:round; stroke-linejoin:round; stroke-width:4; stroke-opacity:1; fill:none" points="283.94,408.411 302.838,408.411 "></polyline>
<polyline clip-path="url(#clip380)" style="stroke:#000000; stroke-linecap:round; stroke-linejoin:round; stroke-width:4; stroke-opacity:1; fill:none" points="283.94,85.9334 302.838,85.9334 "></polyline>
<path clip-path="url(#clip380)" d="M114.26 1376.41 L151.355 1376.41 L151.355 1381.33 L114.26 1381.33 L114.26 1376.41 Z" fill="#000000" fill-rule="nonzero" fill-opacity="1"></path><path clip-path="url(#clip380)" d="M164.983 1392.53 L174.532 1392.53 L174.532 1359.57 L164.144 1361.65 L164.144 1356.33 L174.474 1354.25 L180.319 1354.25 L180.319 1392.53 L189.867 1392.53 L189.867 1397.45 L164.983 1397.45 L164.983 1392.53 Z" fill="#000000" fill-rule="nonzero" fill-opacity="1"></path><path clip-path="url(#clip380)" d="M201.673 1390.1 L207.778 1390.1 L207.778 1397.45 L201.673 1397.45 L201.673 1390.1 Z" fill="#000000" fill-rule="nonzero" fill-opacity="1"></path><path clip-path="url(#clip380)" d="M233.01 1358.09 Q228.496 1358.09 226.21 1362.55 Q223.953 1366.98 223.953 1375.89 Q223.953 1384.77 226.21 1389.23 Q228.496 1393.66 233.01 1393.66 Q237.552 1393.66 239.809 1389.23 Q242.095 1384.77 242.095 1375.89 Q242.095 1366.98 239.809 1362.55 Q237.552 1358.09 233.01 1358.09 M233.01 1353.46 Q240.272 1353.46 244.092 1359.22 Q247.94 1364.95 247.94 1375.89 Q247.94 1386.8 244.092 1392.56 Q240.272 1398.28 233.01 1398.28 Q225.747 1398.28 221.898 1392.56 Q218.079 1386.8 218.079 1375.89 Q218.079 1364.95 221.898 1359.22 Q225.747 1353.46 233.01 1353.46 Z" fill="#000000" fill-rule="nonzero" fill-opacity="1"></path><path clip-path="url(#clip380)" d="M115.504 1053.93 L152.599 1053.93 L152.599 1058.85 L115.504 1058.85 L115.504 1053.93 Z" fill="#000000" fill-rule="nonzero" fill-opacity="1"></path><path clip-path="url(#clip380)" d="M177.715 1035.62 Q173.201 1035.62 170.915 1040.07 Q168.658 1044.5 168.658 1053.41 Q168.658 1062.29 170.915 1066.75 Q173.201 1071.18 177.715 1071.18 Q182.257 1071.18 184.514 1066.75 Q186.8 1062.29 186.8 1053.41 Q186.8 1044.5 184.514 1040.07 Q182.257 1035.62 177.715 1035.62 M177.715 1030.99 Q184.977 1030.99 188.797 1036.74 Q192.645 1042.47 192.645 1053.41 Q192.645 1064.32 188.797 1070.08 Q184.977 1075.81 177.715 1075.81 Q170.452 1075.81 166.604 1070.08 Q162.784 1064.32 162.784 1053.41 Q162.784 1042.47 166.604 1036.74 Q170.452 1030.99 177.715 1030.99 Z" fill="#000000" fill-rule="nonzero" fill-opacity="1"></path><path clip-path="url(#clip380)" d="M202.917 1067.62 L209.022 1067.62 L209.022 1074.97 L202.917 1074.97 L202.917 1067.62 Z" fill="#000000" fill-rule="nonzero" fill-opacity="1"></path><path clip-path="url(#clip380)" d="M221.812 1031.77 L244.757 1031.77 L244.757 1036.69 L227.165 1036.69 L227.165 1047.28 Q228.438 1046.84 229.711 1046.64 Q230.984 1046.41 232.257 1046.41 Q239.491 1046.41 243.715 1050.37 Q247.94 1054.34 247.94 1061.11 Q247.94 1068.08 243.6 1071.96 Q239.259 1075.81 231.36 1075.81 Q228.64 1075.81 225.805 1075.34 Q222.998 1074.88 219.989 1073.95 L219.989 1068.08 Q222.593 1069.5 225.371 1070.19 Q228.148 1070.89 231.244 1070.89 Q236.25 1070.89 239.173 1068.25 Q242.095 1065.62 242.095 1061.11 Q242.095 1056.59 239.173 1053.96 Q236.25 1051.33 231.244 1051.33 Q228.901 1051.33 226.557 1051.85 Q224.242 1052.37 221.812 1053.47 L221.812 1031.77 Z" fill="#000000" fill-rule="nonzero" fill-opacity="1"></path><path clip-path="url(#clip380)" d="M176.47 713.138 Q171.957 713.138 169.671 717.594 Q167.414 722.021 167.414 730.933 Q167.414 739.816 169.671 744.272 Q171.957 748.699 176.47 748.699 Q181.013 748.699 183.27 744.272 Q185.556 739.816 185.556 730.933 Q185.556 722.021 183.27 717.594 Q181.013 713.138 176.47 713.138 M176.47 708.508 Q183.733 708.508 187.553 714.266 Q191.401 719.995 191.401 730.933 Q191.401 741.841 187.553 747.599 Q183.733 753.329 176.47 753.329 Q169.208 753.329 165.359 747.599 Q161.54 741.841 161.54 730.933 Q161.54 719.995 165.359 714.266 Q169.208 708.508 176.47 708.508 Z" fill="#000000" fill-rule="nonzero" fill-opacity="1"></path><path clip-path="url(#clip380)" d="M201.673 745.14 L207.778 745.14 L207.778 752.489 L201.673 752.489 L201.673 745.14 Z" fill="#000000" fill-rule="nonzero" fill-opacity="1"></path><path clip-path="url(#clip380)" d="M233.01 713.138 Q228.496 713.138 226.21 717.594 Q223.953 722.021 223.953 730.933 Q223.953 739.816 226.21 744.272 Q228.496 748.699 233.01 748.699 Q237.552 748.699 239.809 744.272 Q242.095 739.816 242.095 730.933 Q242.095 722.021 239.809 717.594 Q237.552 713.138 233.01 713.138 M233.01 708.508 Q240.272 708.508 244.092 714.266 Q247.94 719.995 247.94 730.933 Q247.94 741.841 244.092 747.599 Q240.272 753.329 233.01 753.329 Q225.747 753.329 221.898 747.599 Q218.079 741.841 218.079 730.933 Q218.079 719.995 221.898 714.266 Q225.747 708.508 233.01 708.508 Z" fill="#000000" fill-rule="nonzero" fill-opacity="1"></path><path clip-path="url(#clip380)" d="M177.715 390.66 Q173.201 390.66 170.915 395.116 Q168.658 399.543 168.658 408.455 Q168.658 417.338 170.915 421.794 Q173.201 426.221 177.715 426.221 Q182.257 426.221 184.514 421.794 Q186.8 417.338 186.8 408.455 Q186.8 399.543 184.514 395.116 Q182.257 390.66 177.715 390.66 M177.715 386.03 Q184.977 386.03 188.797 391.788 Q192.645 397.517 192.645 408.455 Q192.645 419.363 188.797 425.121 Q184.977 430.851 177.715 430.851 Q170.452 430.851 166.604 425.121 Q162.784 419.363 162.784 408.455 Q162.784 397.517 166.604 391.788 Q170.452 386.03 177.715 386.03 Z" fill="#000000" fill-rule="nonzero" fill-opacity="1"></path><path clip-path="url(#clip380)" d="M202.917 422.662 L209.022 422.662 L209.022 430.011 L202.917 430.011 L202.917 422.662 Z" fill="#000000" fill-rule="nonzero" fill-opacity="1"></path><path clip-path="url(#clip380)" d="M221.812 386.811 L244.757 386.811 L244.757 391.73 L227.165 391.73 L227.165 402.321 Q228.438 401.887 229.711 401.684 Q230.984 401.453 232.257 401.453 Q239.491 401.453 243.715 405.417 Q247.94 409.381 247.94 416.152 Q247.94 423.125 243.6 427.002 Q239.259 430.851 231.36 430.851 Q228.64 430.851 225.805 430.388 Q222.998 429.925 219.989 428.999 L219.989 423.125 Q222.593 424.543 225.371 425.237 Q228.148 425.932 231.244 425.932 Q236.25 425.932 239.173 423.299 Q242.095 420.665 242.095 416.152 Q242.095 411.638 239.173 409.005 Q236.25 406.372 231.244 406.372 Q228.901 406.372 226.557 406.892 Q224.242 407.413 221.812 408.513 L221.812 386.811 Z" fill="#000000" fill-rule="nonzero" fill-opacity="1"></path><path clip-path="url(#clip380)" d="M164.983 102.614 L174.532 102.614 L174.532 69.6574 L164.144 71.7408 L164.144 66.4167 L174.474 64.3334 L180.319 64.3334 L180.319 102.614 L189.867 102.614 L189.867 107.533 L164.983 107.533 L164.983 102.614 Z" fill="#000000" fill-rule="nonzero" fill-opacity="1"></path><path clip-path="url(#clip380)" d="M201.673 100.184 L207.778 100.184 L207.778 107.533 L201.673 107.533 L201.673 100.184 Z" fill="#000000" fill-rule="nonzero" fill-opacity="1"></path><path clip-path="url(#clip380)" d="M233.01 68.1818 Q228.496 68.1818 226.21 72.6377 Q223.953 77.0648 223.953 85.9768 Q223.953 94.8598 226.21 99.3158 Q228.496 103.743 233.01 103.743 Q237.552 103.743 239.809 99.3158 Q242.095 94.8598 242.095 85.9768 Q242.095 77.0648 239.809 72.6377 Q237.552 68.1818 233.01 68.1818 M233.01 63.5521 Q240.272 63.5521 244.092 69.3102 Q247.94 75.0394 247.94 85.9768 Q247.94 96.8853 244.092 102.643 Q240.272 108.373 233.01 108.373 Q225.747 108.373 221.898 102.643 Q218.079 96.8853 218.079 85.9768 Q218.079 75.0394 221.898 69.3102 Q225.747 63.5521 233.01 63.5521 Z" fill="#000000" fill-rule="nonzero" fill-opacity="1"></path><path clip-path="url(#clip380)" d="M33.8307 845.236 Q33.2578 846.223 33.0032 847.4 Q32.7167 848.546 32.7167 849.947 Q32.7167 854.912 35.9632 857.585 Q39.1779 860.227 45.2253 860.227 L64.0042 860.227 L64.0042 866.115 L28.3562 866.115 L28.3562 860.227 L33.8944 860.227 Q30.6479 858.381 29.0883 855.421 Q27.4968 852.461 27.4968 848.228 Q27.4968 847.623 27.5923 846.891 Q27.656 846.159 27.8151 845.268 L33.8307 845.236 Z" fill="#000000" fill-rule="nonzero" fill-opacity="1"></path><path clip-path="url(#clip380)" d="M44.7161 810.034 L47.5806 810.034 L47.5806 836.961 Q53.6281 836.579 56.8109 833.332 Q59.9619 830.054 59.9619 824.229 Q59.9619 820.855 59.1344 817.704 Q58.3069 814.521 56.6518 811.402 L62.1899 811.402 Q63.5267 814.553 64.227 817.863 Q64.9272 821.174 64.9272 824.579 Q64.9272 833.109 59.9619 838.106 Q54.9967 843.072 46.5303 843.072 Q37.7774 843.072 32.6531 838.361 Q27.4968 833.619 27.4968 825.598 Q27.4968 818.405 32.1438 814.235 Q36.7589 810.034 44.7161 810.034 M42.9973 815.89 Q38.1912 815.954 35.3266 818.595 Q32.4621 821.205 32.4621 825.534 Q32.4621 830.436 35.2312 833.396 Q38.0002 836.324 43.0292 836.77 L42.9973 815.89 Z" fill="#000000" fill-rule="nonzero" fill-opacity="1"></path><path clip-path="url(#clip380)" d="M46.0847 784.221 Q46.0847 791.318 47.7079 794.056 Q49.3312 796.793 53.2461 796.793 Q56.3653 796.793 58.2114 794.756 Q60.0256 792.687 60.0256 789.154 Q60.0256 784.284 56.5881 781.356 Q53.1188 778.396 47.3897 778.396 L46.0847 778.396 L46.0847 784.221 M43.6657 772.54 L64.0042 772.54 L64.0042 778.396 L58.5933 778.396 Q61.8398 780.401 63.3994 783.393 Q64.9272 786.385 64.9272 790.714 Q64.9272 796.188 61.8716 799.435 Q58.7843 802.649 53.6281 802.649 Q47.6125 802.649 44.5569 798.639 Q41.5014 794.597 41.5014 786.608 L41.5014 778.396 L40.9285 778.396 Q36.8862 778.396 34.6901 781.07 Q32.4621 783.711 32.4621 788.518 Q32.4621 791.573 33.1941 794.469 Q33.9262 797.366 35.3903 800.039 L29.9795 800.039 Q28.7381 796.825 28.1334 793.801 Q27.4968 790.777 27.4968 787.913 Q27.4968 780.178 31.5072 776.359 Q35.5176 772.54 43.6657 772.54 Z" fill="#000000" fill-rule="nonzero" fill-opacity="1"></path><path clip-path="url(#clip380)" d="M14.479 760.477 L14.479 754.62 L64.0042 754.62 L64.0042 760.477 L14.479 760.477 Z" fill="#000000" fill-rule="nonzero" fill-opacity="1"></path><path clip-path="url(#clip380)" d="M58.657 715.98 L77.5631 715.98 L77.5631 721.869 L28.3562 721.869 L28.3562 715.98 L33.7671 715.98 Q30.5842 714.134 29.0564 711.333 Q27.4968 708.501 27.4968 704.586 Q27.4968 698.093 32.6531 694.05 Q37.8093 689.976 46.212 689.976 Q54.6147 689.976 59.771 694.05 Q64.9272 698.093 64.9272 704.586 Q64.9272 708.501 63.3994 711.333 Q61.8398 714.134 58.657 715.98 M46.212 696.056 Q39.7508 696.056 36.0905 698.729 Q32.3984 701.371 32.3984 706.018 Q32.3984 710.665 36.0905 713.339 Q39.7508 715.98 46.212 715.98 Q52.6732 715.98 56.3653 713.339 Q60.0256 710.665 60.0256 706.018 Q60.0256 701.371 56.3653 698.729 Q52.6732 696.056 46.212 696.056 Z" fill="#000000" fill-rule="nonzero" fill-opacity="1"></path><path clip-path="url(#clip380)" d="M46.0847 664.068 Q46.0847 671.166 47.7079 673.903 Q49.3312 676.64 53.2461 676.64 Q56.3653 676.64 58.2114 674.603 Q60.0256 672.534 60.0256 669.001 Q60.0256 664.132 56.5881 661.203 Q53.1188 658.243 47.3897 658.243 L46.0847 658.243 L46.0847 664.068 M43.6657 652.387 L64.0042 652.387 L64.0042 658.243 L58.5933 658.243 Q61.8398 660.249 63.3994 663.24 Q64.9272 666.232 64.9272 670.561 Q64.9272 676.035 61.8716 679.282 Q58.7843 682.497 53.6281 682.497 Q47.6125 682.497 44.5569 678.486 Q41.5014 674.444 41.5014 666.455 L41.5014 658.243 L40.9285 658.243 Q36.8862 658.243 34.6901 660.917 Q32.4621 663.559 32.4621 668.365 Q32.4621 671.42 33.1941 674.317 Q33.9262 677.213 35.3903 679.887 L29.9795 679.887 Q28.7381 676.672 28.1334 673.648 Q27.4968 670.625 27.4968 667.76 Q27.4968 660.026 31.5072 656.206 Q35.5176 652.387 43.6657 652.387 Z" fill="#000000" fill-rule="nonzero" fill-opacity="1"></path><path clip-path="url(#clip380)" d="M33.8307 619.667 Q33.2578 620.654 33.0032 621.831 Q32.7167 622.977 32.7167 624.378 Q32.7167 629.343 35.9632 632.017 Q39.1779 634.658 45.2253 634.658 L64.0042 634.658 L64.0042 640.547 L28.3562 640.547 L28.3562 634.658 L33.8944 634.658 Q30.6479 632.812 29.0883 629.852 Q27.4968 626.892 27.4968 622.659 Q27.4968 622.054 27.5923 621.322 Q27.656 620.59 27.8151 619.699 L33.8307 619.667 Z" fill="#000000" fill-rule="nonzero" fill-opacity="1"></path><path clip-path="url(#clip380)" d="M18.2347 607.731 L28.3562 607.731 L28.3562 595.668 L32.9077 595.668 L32.9077 607.731 L52.2594 607.731 Q56.6199 607.731 57.8613 606.554 Q59.1026 605.344 59.1026 601.684 L59.1026 595.668 L64.0042 595.668 L64.0042 601.684 Q64.0042 608.464 61.4897 611.042 Q58.9434 613.62 52.2594 613.62 L32.9077 613.62 L32.9077 617.917 L28.3562 617.917 L28.3562 613.62 L18.2347 613.62 L18.2347 607.731 Z" fill="#000000" fill-rule="nonzero" fill-opacity="1"></path><polyline clip-path="url(#clip382)" style="stroke:#0000ff; stroke-linecap:round; stroke-linejoin:round; stroke-width:8; stroke-opacity:1; fill:none" stroke-dasharray="4, 8" points="2294.2,476.009 2288.56,517.623 2284.43,548.746 2278.78,592.002 2274.65,624.102 2269,668.378 2264.87,700.992 2259.22,745.652 2255.09,778.313 2249.44,822.714 2245.31,854.951 2239.66,898.457 2235.53,929.807 2229.88,971.79 2225.75,1001.8 2220.1,1041.66 2215.97,1069.9 2210.32,1107.06 2206.19,1133.13 2200.55,1167.06 2196.41,1190.58 2190.77,1220.78 2186.63,1241.42 2180.99,1267.47 2176.85,1284.92 2171.21,1306.44 2167.07,1320.45 2161.43,1337.13 2157.3,1347.51 2151.65,1359.12 2147.52,1365.71 2141.87,1372.07 2137.74,1374.78 2132.09,1375.8 2127.96,1374.59 2122.31,1370.26 2118.18,1365.15 2112.53,1355.54 2108.4,1346.6 2102.75,1331.83 2098.62,1319.19 2092.97,1299.48 2088.84,1283.33 2083.19,1258.97 2079.06,1239.52 2073.42,1210.86 2069.28,1188.4 2063.64,1155.85 2059.5,1130.71 2053.86,1094.73 2049.72,1067.27 2044.08,1028.38 2039.94,998.993 2034.3,957.753 2030.17,926.862 2024.52,883.867 2020.39,851.915 2014.74,807.781 2010.61,775.228 2004.96,730.591 2000.83,697.903 1995.18,653.404 1991.05,621.053 1985.4,577.332 1981.27,545.781 1975.62,503.467 1971.49,473.171 1965.84,432.871 1961.71,404.265 1956.06,366.559 1951.93,340.054 1946.29,305.484 1942.15,281.462 1936.51,250.525 1932.37,229.33 1926.73,202.471 1922.59,184.408 1916.95,162.013 1912.81,147.342 1907.17,129.732 1903.04,118.664 1897.39,106.093 1893.26,98.7873 1887.61,91.4359 1883.48,87.9969 1877.83,85.9707 1873.7,86.4481 1868.05,89.7762 1863.92,94.1632 1858.27,102.798 1854.14,111.031 1848.49,124.848 1844.36,136.81 1838.71,155.61 1834.58,171.128 1828.93,194.642 1824.8,213.493 1819.16,241.383 1815.02,263.296 1809.38,295.16 1805.24,319.82 1799.6,355.201 1795.46,382.253 1789.82,420.642 1785.68,449.699 1780.04,490.543 1775.91,521.186 1770.26,563.899 1766.13,595.687 1760.48,639.656 1756.35,672.133 1750.7,716.724 1746.57,749.423 1740.92,793.996 1736.79,826.446 1731.14,870.36 1727.01,902.096 1721.36,944.72 1717.23,975.285 1711.58,1016.01 1707.45,1044.96 1701.8,1083.19 1697.67,1110.12 1692.03,1145.32 1687.89,1169.83 1682.25,1201.48 1678.11,1223.23 1672.47,1250.88 1668.33,1269.55 1662.69,1292.81 1658.55,1308.13 1652.91,1326.66 1648.78,1338.41 1643.13,1351.94 1639,1359.96 1633.35,1368.3 1629.22,1372.46 1623.57,1375.49 1619.44,1375.75 1613.79,1373.42 1609.66,1369.76 1604.01,1362.11 1599.88,1354.59 1594.23,1341.73 1590.1,1330.45 1584.45,1312.56 1580.32,1297.69 1574.67,1275.04 1570.54,1256.79 1564.9,1229.69 1560.76,1208.33 1555.12,1177.17 1550.98,1153 1545.34,1118.24 1541.2,1091.61 1535.56,1053.74 1531.42,1025.03 1525.78,984.597 1521.65,954.219 1516,911.808 1511.87,880.2 1506.22,836.419 1502.09,804.035 1496.44,759.512 1492.31,726.819 1486.66,682.194 1482.53,649.661 1476.88,605.575 1472.75,573.671 1467.1,530.759 1462.97,499.941 1457.32,458.819 1453.19,429.531 1447.54,390.79 1443.41,363.453 1437.77,327.65 1433.63,302.657 1427.99,270.306 1423.85,248.016 1418.21,219.584 1414.07,200.317 1408.43,176.211 1404.29,160.245 1398.65,140.813 1394.52,128.376 1388.87,113.896 1384.74,105.168 1379.09,95.8488 1374.96,90.9552 1369.31,86.9303 1365.18,85.9411 1359.53,87.2687 1355.4,90.1983 1349.75,96.8592 1345.62,103.665 1339.97,115.564 1335.84,126.149 1330.19,143.114 1326.06,157.325 1320.41,179.113 "></polyline>
<polyline clip-path="url(#clip382)" style="stroke:#008000; stroke-linecap:round; stroke-linejoin:round; stroke-width:8; stroke-opacity:1; fill:none" points="2294.2,730.836 2288.56,730.842 2284.43,730.848 2278.78,730.856 2274.65,730.863 2269,730.873 2264.87,730.881 2259.22,730.894 2255.09,730.903 2249.44,730.918 2245.31,730.929 2239.66,730.946 2235.53,730.959 2229.88,730.978 2225.75,730.993 2220.1,731.014 2215.97,731.03 2210.32,731.054 2206.19,731.071 2200.55,731.097 2196.41,731.116 2190.77,731.143 2186.63,731.163 2180.99,731.191 2176.85,731.213 2171.21,731.242 2167.07,731.264 2161.43,731.294 2157.3,731.316 2151.65,731.345 2147.52,731.367 2141.87,731.396 2137.74,731.417 2132.09,731.444 2127.96,731.463 2122.31,731.488 2118.18,731.505 2112.53,731.526 2108.4,731.54 2102.75,731.556 2098.62,731.566 2092.97,731.576 2088.84,731.581 2083.19,731.583 2079.06,731.582 2073.42,731.576 2069.28,731.568 2063.64,731.551 2059.5,731.535 2053.86,731.506 2049.72,731.48 2044.08,731.438 2039.94,731.402 2034.3,731.345 2030.17,731.297 2024.52,731.224 2020.39,731.164 2014.74,731.072 2010.61,730.999 2004.96,730.889 2000.83,730.801 1995.18,730.671 1991.05,730.568 1985.4,730.418 1981.27,730.301 1975.62,730.13 1971.49,729.997 1965.84,729.806 1961.71,729.658 1956.06,729.447 1951.93,729.286 1946.29,729.056 1942.15,728.882 1936.51,728.636 1932.37,728.451 1926.73,728.192 1922.59,727.997 1916.95,727.728 1912.81,727.528 1907.17,727.253 1903.04,727.05 1897.39,726.775 1893.26,726.575 1887.61,726.306 1883.48,726.113 1877.83,725.857 1873.7,725.677 1868.05,725.444 1863.92,725.284 1858.27,725.082 1854.14,724.949 1848.49,724.79 1844.36,724.692 1838.71,724.587 1834.58,724.533 1828.93,724.495 1824.8,724.494 1819.16,724.535 1815.02,724.598 1809.38,724.732 1805.24,724.869 1799.6,725.111 1795.46,725.331 1789.82,725.695 1785.68,726.01 1780.04,726.509 1775.91,726.928 1770.26,727.577 1766.13,728.109 1760.48,728.919 1756.35,729.574 1750.7,730.556 1746.57,731.341 1740.92,732.504 1736.79,733.424 1731.14,734.774 1727.01,735.832 1721.36,737.373 1717.23,738.57 1711.58,740.299 1707.45,741.633 1701.8,743.546 1697.67,745.011 1692.03,747.096 1687.89,748.681 1682.25,750.922 1678.11,752.613 1672.47,754.984 1668.33,756.761 1662.69,759.232 1658.55,761.068 1652.91,763.6 1648.78,765.463 1643.13,768.007 1639,769.859 1633.35,772.357 1629.22,774.152 1623.57,776.538 1619.44,778.223 1613.79,780.42 1609.66,781.935 1604.01,783.856 1599.88,785.135 1594.23,786.683 1590.1,787.652 1584.45,788.723 1580.32,789.302 1574.67,789.782 1570.54,789.885 1564.9,789.653 1560.76,789.19 1555.12,788.121 1550.98,786.997 1545.34,784.961 1541.2,783.081 1535.56,779.947 1531.42,777.216 1525.78,772.854 1521.65,769.178 1516,763.464 1511.87,758.754 1506.22,751.572 1502.09,745.749 1496.44,736.996 1492.31,729.989 1486.66,719.581 1482.53,711.337 1476.88,699.212 1472.75,689.696 1467.1,675.82 1462.97,665.02 1457.32,649.397 1453.19,637.329 1447.54,620.001 1443.41,606.715 1437.77,587.775 1433.63,573.357 1427.99,552.951 1423.85,537.53 1418.21,515.868 1414.07,499.62 1408.43,476.977 1404.29,460.132 1398.65,436.858 1394.52,419.702 1388.87,396.227 1384.74,379.104 1379.09,355.944 1374.96,339.262 1369.31,317.017 1365.18,301.25 1359.53,280.613 1355.4,266.3 1349.75,248.052 1345.62,235.799 1339.97,220.811 1335.84,211.286 1330.19,200.512 1326.06,194.443 1320.41,188.917 "></polyline>
<polyline clip-path="url(#clip382)" style="stroke:#ff0000; stroke-linecap:round; stroke-linejoin:round; stroke-width:8; stroke-opacity:1; fill:none" stroke-dasharray="32, 20" points="2294.2,730.877 2288.56,730.871 2284.43,730.868 2278.78,730.866 2274.65,730.866 2269,730.868 2264.87,730.871 2259.22,730.876 2255.09,730.881 2249.44,730.89 2245.31,730.898 2239.66,730.91 2235.53,730.92 2229.88,730.936 2225.75,730.949 2220.1,730.967 2215.97,730.982 2210.32,731.004 2206.19,731.021 2200.55,731.046 2196.41,731.065 2190.77,731.091 2186.63,731.112 2180.99,731.141 2176.85,731.163 2171.21,731.193 2167.07,731.215 2161.43,731.247 2157.3,731.27 2151.65,731.301 2147.52,731.324 2141.87,731.354 2137.74,731.377 2132.09,731.406 2127.96,731.426 2122.31,731.453 2118.18,731.471 2112.53,731.494 2108.4,731.51 2102.75,731.528 2098.62,731.539 2092.97,731.551 2088.84,731.557 2083.19,731.562 2079.06,731.562 2073.42,731.558 2069.28,731.551 2063.64,731.536 2059.5,731.52 2053.86,731.493 2049.72,731.469 2044.08,731.428 2039.94,731.393 2034.3,731.337 2030.17,731.29 2024.52,731.217 2020.39,731.158 2014.74,731.068 2010.61,730.995 2004.96,730.885 2000.83,730.798 1995.18,730.669 1991.05,730.567 1985.4,730.417 1981.27,730.3 1975.62,730.129 1971.49,729.997 1965.84,729.806 1961.71,729.659 1956.06,729.448 1951.93,729.286 1946.29,729.057 1942.15,728.883 1936.51,728.637 1932.37,728.452 1926.73,728.192 1922.59,727.998 1916.95,727.729 1912.81,727.529 1907.17,727.253 1903.04,727.051 1897.39,726.776 1893.26,726.575 1887.61,726.306 1883.48,726.113 1877.83,725.857 1873.7,725.678 1868.05,725.444 1863.92,725.284 1858.27,725.082 1854.14,724.949 1848.49,724.79 1844.36,724.692 1838.71,724.587 1834.58,724.533 1828.93,724.495 1824.8,724.494 1819.16,724.535 1815.02,724.598 1809.38,724.732 1805.24,724.869 1799.6,725.111 1795.46,725.332 1789.82,725.695 1785.68,726.01 1780.04,726.51 1775.91,726.929 1770.26,727.578 1766.13,728.11 1760.48,728.92 1756.35,729.575 1750.7,730.558 1746.57,731.343 1740.92,732.506 1736.79,733.426 1731.14,734.776 1727.01,735.835 1721.36,737.375 1717.23,738.573 1711.58,740.302 1707.45,741.636 1701.8,743.549 1697.67,745.014 1692.03,747.099 1687.89,748.685 1682.25,750.925 1678.11,752.616 1672.47,754.988 1668.33,756.764 1662.69,759.236 1658.55,761.071 1652.91,763.603 1648.78,765.466 1643.13,768.009 1639,769.861 1633.35,772.359 1629.22,774.154 1623.57,776.539 1619.44,778.224 1613.79,780.42 1609.66,781.935 1604.01,783.853 1599.88,785.132 1594.23,786.68 1590.1,787.649 1584.45,788.718 1580.32,789.296 1574.67,789.773 1570.54,789.877 1564.9,789.644 1560.76,789.179 1555.12,788.109 1550.98,786.982 1545.34,784.947 1541.2,783.065 1535.56,779.929 1531.42,777.197 1525.78,772.831 1521.65,769.153 1516,763.439 1511.87,758.728 1506.22,751.545 1502.09,745.72 1496.44,736.965 1492.31,729.955 1486.66,719.547 1482.53,711.302 1476.88,699.175 1472.75,689.658 1467.1,675.78 1462.97,664.98 1457.32,649.355 1453.19,637.286 1447.54,619.959 1443.41,606.672 1437.77,587.732 1433.63,573.314 1427.99,552.91 1423.85,537.488 1418.21,515.826 1414.07,499.582 1408.43,476.938 1404.29,460.095 1398.65,436.824 1394.52,419.67 1388.87,396.203 1384.74,379.078 1379.09,355.921 1374.96,339.243 1369.31,317.003 1365.18,301.241 1359.53,280.619 1355.4,266.312 1349.75,248.062 1345.62,235.815 1339.97,220.834 1335.84,211.316 1330.19,200.561 1326.06,194.487 1320.41,188.974 "></polyline>
<polyline clip-path="url(#clip382)" style="stroke:#0000ff; stroke-linecap:round; stroke-linejoin:round; stroke-width:8; stroke-opacity:1; fill:none" stroke-dasharray="4, 8" points="1316.28,196.747 1310.64,223.044 1306.5,243.847 1300.86,274.276 1296.72,297.948 1291.08,332.071 1286.94,358.273 1281.3,395.599 1277.16,423.954 1271.52,463.948 1267.39,494.047 1261.74,536.133 1257.61,567.545 1251.96,611.118 1247.83,643.391 1242.18,687.825 1238.05,720.495 1232.4,765.15 1228.27,797.748 1222.62,841.984 1218.49,874.041 1212.84,917.22 1208.71,948.275 1203.06,989.778 1198.93,1019.38 1193.28,1058.61 1189.15,1086.35 1183.51,1122.74 1179.37,1148.2 1173.73,1181.23 1169.59,1204.05 1163.95,1233.25 1159.81,1253.1 1154.17,1278.05 1150.03,1294.65 1144.39,1314.98 1140.26,1328.09 1134.61,1343.51 1130.48,1352.95 1124.83,1363.24 1120.7,1368.86 1115.05,1373.88 1110.92,1375.6 1105.27,1375.28 1101.14,1373.08 1095.49,1367.41 1091.36,1361.32 1085.71,1350.39 1081.58,1340.51 1075.93,1324.47 1071.8,1310.92 1066.15,1290.02 1062.02,1273 1056.38,1247.52 1052.24,1227.29 1046.6,1197.6 1042.46,1174.44 1036.82,1140.97 1032.68,1115.22 1027.04,1078.45 1022.9,1050.47 1017.26,1010.93 1013.13,981.125 1007.48,939.386 1003.35,908.185 997.7,864.843 993.567,832.696 987.921,788.375 983.787,755.743 978.141,711.081 974.008,678.433 968.362,634.071 964.229,601.878 958.583,558.453 954.45,527.176 948.804,485.314 944.671,455.404 939.025,415.705 934.891,387.591 929.245,350.626 925.112,324.713 919.466,291.014 915.333,267.674 909.687,237.726 905.554,217.294 899.908,191.526 895.774,174.296 890.128,153.08 885.995,139.3 880.349,122.94 876.216,112.808 870.57,101.539 866.437,95.2008 860.791,89.1854 856.657,86.7317 851.011,86.0561 846.878,87.5223 841.232,92.1962 837.099,97.5614 831.453,107.518 827.32,116.705 821.674,131.8 817.541,144.677 811.895,164.694 807.761,181.076 802.115,205.728 797.982,225.378 792.336,254.31 788.203,276.947 782.557,309.744 778.424,335.042 772.778,371.231 768.644,398.827 762.998,437.889 758.865,467.386 753.219,508.758 749.086,539.732 743.44,582.821 739.307,614.826 733.661,659.012 729.527,691.589 723.881,736.236 719.748,768.916 714.102,813.384 709.969,845.697 704.323,889.345 700.19,920.828 694.544,963.029 690.411,993.228 684.764,1033.38 680.631,1061.86 674.985,1099.37 670.852,1125.73 665.206,1160.08 661.073,1183.92 655.427,1214.61 651.294,1235.61 645.648,1262.19 641.514,1280.04 635.868,1302.13 631.735,1316.57 626.089,1333.86 621.956,1344.68 616.31,1356.92 612.177,1363.98 606.531,1370.98 602.397,1374.17 596.751,1375.84 592.618,1375.11 586.972,1371.43 582.839,1366.79 577.193,1357.82 573.06,1349.33 567.414,1335.19 563.281,1322.99 557.634,1303.87 553.501,1288.13 547.855,1264.32 543.722,1245.26 538.076,1217.09 533.943,1194.99 528.297,1162.88 524.164,1138.06 518.518,1102.46 514.384,1075.27 508.738,1036.7 504.605,1007.53 498.959,966.544 494.826,935.813 489.18,892.999 485.047,861.152 479.401,817.123 475.267,784.617 469.621,740.008 465.488,707.311 459.842,662.761 455.709,630.344 450.063,586.494 445.93,554.821 440.284,512.303 436.151,481.83 430.504,441.254 426.371,412.419 420.725,374.368 416.592,347.587 410.946,312.608 406.813,288.264 401.167,256.86 397.034,235.304 391.388,207.926 387.254,189.467 381.608,166.51 377.475,151.414 371.829,133.207 367.696,121.691 362.05,108.496 357.917,100.725 352.271,92.7315 348.137,88.8181 342.491,86.1406 "></polyline>
<polyline clip-path="url(#clip382)" style="stroke:#008000; stroke-linecap:round; stroke-linejoin:round; stroke-width:8; stroke-opacity:1; fill:none" points="1316.28,196.747 1310.64,223.044 1306.5,243.847 1300.86,274.276 1296.72,297.948 1291.08,332.071 1286.94,358.273 1281.3,395.599 1277.16,423.954 1271.52,463.948 1267.39,494.047 1261.74,536.133 1257.61,567.545 1251.96,611.118 1247.83,643.391 1242.18,687.825 1238.05,720.495 1232.4,765.15 1228.27,797.748 1222.62,841.984 1218.49,874.041 1212.84,917.22 1208.71,948.275 1203.06,989.778 1198.93,1019.38 1193.28,1058.61 1189.15,1086.35 1183.51,1122.74 1179.37,1148.2 1173.73,1181.23 1169.59,1204.05 1163.95,1233.25 1159.81,1253.1 1154.17,1278.05 1150.03,1294.65 1144.39,1314.98 1140.26,1328.09 1134.61,1343.51 1130.48,1352.95 1124.83,1363.24 1120.7,1368.86 1115.05,1373.88 1110.92,1375.6 1105.27,1375.28 1101.14,1373.08 1095.49,1367.41 1091.36,1361.32 1085.71,1350.39 1081.58,1340.51 1075.93,1324.47 1071.8,1310.92 1066.15,1290.02 1062.02,1273 1056.38,1247.52 1052.24,1227.29 1046.6,1197.6 1042.46,1174.44 1036.82,1140.97 1032.68,1115.22 1027.04,1078.45 1022.9,1050.47 1017.26,1010.93 1013.13,981.125 1007.48,939.386 1003.35,908.185 997.7,864.843 993.567,832.696 987.921,788.375 983.787,755.743 978.141,711.081 974.008,678.433 968.362,634.071 964.229,601.878 958.583,558.453 954.45,527.176 948.804,485.314 944.671,455.404 939.025,415.705 934.891,387.591 929.245,350.626 925.112,324.713 919.466,291.014 915.333,267.674 909.687,237.726 905.554,217.294 899.908,191.526 895.774,174.296 890.128,153.08 885.995,139.3 880.349,122.94 876.216,112.808 870.57,101.539 866.437,95.2008 860.791,89.1854 856.657,86.7317 851.011,86.0561 846.878,87.5223 841.232,92.1962 837.099,97.5614 831.453,107.518 827.32,116.705 821.674,131.8 817.541,144.677 811.895,164.694 807.761,181.076 802.115,205.728 797.982,225.378 792.336,254.31 788.203,276.947 782.557,309.744 778.424,335.042 772.778,371.231 768.644,398.827 762.998,437.889 758.865,467.386 753.219,508.758 749.086,539.732 743.44,582.821 739.307,614.826 733.661,659.012 729.527,691.589 723.881,736.236 719.748,768.916 714.102,813.384 709.969,845.697 704.323,889.345 700.19,920.828 694.544,963.029 690.411,993.228 684.764,1033.38 680.631,1061.86 674.985,1099.37 670.852,1125.73 665.206,1160.08 661.073,1183.92 655.427,1214.61 651.294,1235.61 645.648,1262.19 641.514,1280.04 635.868,1302.13 631.735,1316.57 626.089,1333.86 621.956,1344.68 616.31,1356.92 612.177,1363.98 606.531,1370.98 602.397,1374.17 596.751,1375.84 592.618,1375.11 586.972,1371.43 582.839,1366.79 577.193,1357.82 573.06,1349.33 567.414,1335.19 563.281,1322.99 557.634,1303.87 553.501,1288.13 547.855,1264.32 543.722,1245.26 538.076,1217.09 533.943,1194.99 528.297,1162.88 524.164,1138.06 518.518,1102.46 514.384,1075.27 508.738,1036.7 504.605,1007.53 498.959,966.544 494.826,935.813 489.18,892.999 485.047,861.152 479.401,817.123 475.267,784.617 469.621,740.008 465.488,707.311 459.842,662.761 455.709,630.344 450.063,586.494 445.93,554.821 440.284,512.303 436.151,481.83 430.504,441.254 426.371,412.419 420.725,374.368 416.592,347.587 410.946,312.608 406.813,288.264 401.167,256.86 397.034,235.304 391.388,207.926 387.254,189.467 381.608,166.51 377.475,151.414 371.829,133.207 367.696,121.691 362.05,108.496 357.917,100.725 352.271,92.7315 348.137,88.8181 342.491,86.1406 "></polyline>
<polyline clip-path="url(#clip382)" style="stroke:#ff0000; stroke-linecap:round; stroke-linejoin:round; stroke-width:8; stroke-opacity:1; fill:none" stroke-dasharray="32, 20" points="1316.28,196.815 1310.64,223.117 1306.5,243.921 1300.86,274.358 1296.72,298.035 1291.08,332.164 1286.94,358.37 1281.3,395.702 1277.16,424.066 1271.52,464.057 1267.39,494.159 1261.74,536.252 1257.61,567.662 1251.96,611.238 1247.83,643.512 1242.18,687.947 1238.05,720.617 1232.4,765.273 1228.27,797.869 1222.62,842.105 1218.49,874.16 1212.84,917.334 1208.71,948.391 1203.06,989.891 1198.93,1019.49 1193.28,1058.72 1189.15,1086.45 1183.51,1122.84 1179.37,1148.29 1173.73,1181.32 1169.59,1204.14 1163.95,1233.32 1159.81,1253.18 1154.17,1278.12 1150.03,1294.71 1144.39,1315.04 1140.26,1328.14 1134.61,1343.56 1130.48,1352.97 1124.83,1363.27 1120.7,1368.87 1115.05,1373.89 1110.92,1375.62 1105.27,1375.27 1101.14,1373.08 1095.49,1367.4 1091.36,1361.31 1085.71,1350.37 1081.58,1340.47 1075.93,1324.42 1071.8,1310.87 1066.15,1289.96 1062.02,1272.95 1056.38,1247.46 1052.24,1227.23 1046.6,1197.54 1042.46,1174.37 1036.82,1140.9 1032.68,1115.13 1027.04,1078.36 1022.9,1050.38 1017.26,1010.84 1013.13,981.033 1007.48,939.287 1003.35,908.089 997.7,864.745 993.567,832.595 987.921,788.274 983.787,755.643 978.141,710.98 974.008,678.334 968.362,633.974 964.229,601.779 958.583,558.359 954.45,527.081 948.804,485.22 944.671,455.317 939.025,415.616 934.891,387.505 929.245,350.552 925.112,324.634 919.466,290.939 915.333,267.611 909.687,237.669 905.554,217.231 899.908,191.468 895.774,174.253 890.128,153.032 885.995,139.256 880.349,122.914 876.216,112.786 870.57,101.523 866.437,95.1773 860.791,89.1677 856.657,86.7186 851.011,86.0614 846.878,87.532 841.232,92.1996 837.099,97.569 831.453,107.543 827.32,116.734 821.674,131.835 817.541,144.715 811.895,164.726 807.761,181.111 802.115,205.778 797.982,225.421 792.336,254.367 788.203,277.007 782.557,309.798 778.424,335.106 772.778,371.291 768.644,398.888 762.998,437.953 758.865,467.451 753.219,508.826 749.086,539.805 743.44,582.894 739.307,614.897 733.661,659.084 729.527,691.662 723.881,736.308 719.748,768.988 714.102,813.456 709.969,845.767 704.323,889.412 700.19,920.897 694.544,963.097 690.411,993.29 684.764,1033.43 680.631,1061.92 674.985,1099.43 670.852,1125.78 665.206,1160.12 661.073,1183.98 655.427,1214.66 651.294,1235.65 645.648,1262.23 641.514,1280.08 635.868,1302.15 631.735,1316.6 626.089,1333.88 621.956,1344.7 616.31,1356.94 612.177,1363.98 606.531,1371 602.397,1374.18 596.751,1375.84 592.618,1375.11 586.972,1371.42 582.839,1366.78 577.193,1357.81 573.06,1349.31 567.414,1335.17 563.281,1322.97 557.634,1303.84 553.501,1288.11 547.855,1264.28 543.722,1245.22 538.076,1217.07 533.943,1194.96 528.297,1162.85 524.164,1138.02 518.518,1102.43 514.384,1075.22 508.738,1036.66 504.605,1007.49 498.959,966.501 494.826,935.77 489.18,892.951 485.047,861.107 479.401,817.077 475.267,784.57 469.621,739.961 465.488,707.265 459.842,662.715 455.709,630.298 450.063,586.452 445.93,554.778 440.284,512.259 436.151,481.793 430.504,441.213 426.371,412.38 420.725,374.33 416.592,347.55 410.946,312.581 406.813,288.231 401.167,256.829 397.034,235.276 391.388,207.901 387.254,189.445 381.608,166.502 377.475,151.409 371.829,133.194 367.696,121.681 362.05,108.489 357.917,100.718 352.271,92.651 348.137,88.9152 342.491,86.3781 "></polyline>
<path clip-path="url(#clip380)" d="M2000.19 436.692 L2283.8 436.692 L2283.8 92.8206 L2000.19 92.8206  Z" fill="#ffffff" fill-rule="evenodd" fill-opacity="1"></path>
<polyline clip-path="url(#clip380)" style="stroke:#000000; stroke-linecap:round; stroke-linejoin:round; stroke-width:4; stroke-opacity:1; fill:none" points="2000.19,436.692 2283.8,436.692 2283.8,92.8206 2000.19,92.8206 2000.19,436.692 "></polyline>
<polyline clip-path="url(#clip380)" style="stroke:#0000ff; stroke-linecap:round; stroke-linejoin:round; stroke-width:12; stroke-opacity:1; fill:none" stroke-dasharray="6, 12" points="2023.18,178.788 2161.1,178.788 "></polyline>
<path clip-path="url(#clip380)" d="M2225.05 164.885 Q2225.05 169.065 2223.12 173.211 Q2221.19 177.357 2218.02 180.519 Q2214.9 183.646 2210.61 185.613 Q2206.36 187.581 2202 187.581 Q2201.23 187.581 2199.65 187.405 Q2197.19 200.37 2197.12 200.58 Q2196.8 201.318 2196.17 201.775 Q2195.57 202.232 2195.15 202.337 Q2194.73 202.442 2194.45 202.442 Q2193.75 202.442 2193.04 201.951 Q2192.38 201.494 2192.38 200.44 Q2192.38 200.194 2192.73 198.999 L2196.56 186.913 Q2190.76 185.578 2187.42 181.889 Q2184.08 178.165 2184.08 173.106 Q2184.08 169.874 2185.56 165.657 Q2187.04 161.441 2188.83 158.596 Q2190.62 155.75 2191.64 155.75 Q2192.52 155.75 2192.52 156.488 Q2192.52 156.769 2191.95 157.401 Q2189.11 160.668 2187.53 165.376 Q2185.98 170.049 2185.98 172.298 Q2185.98 176.233 2189 179.079 Q2192.06 181.889 2197.79 182.943 Q2201.19 171.911 2203.23 167.274 Q2207.34 158.069 2212.68 155.82 Q2214.65 154.977 2216.83 154.977 Q2220.76 154.977 2222.91 157.752 Q2225.05 160.493 2225.05 164.885 M2223.01 166.466 Q2223.01 164.603 2222.34 163.022 Q2221.71 161.441 2220.1 160.317 Q2218.48 159.158 2216.13 159.158 Q2211.42 159.158 2207.48 163.69 Q2203.55 168.222 2201.86 175.249 L2200.42 183.049 Q2200.42 183.33 2201.37 183.33 Q2201.93 183.4 2202.67 183.4 Q2206.67 183.4 2210.47 181.889 Q2214.3 180.378 2217 177.989 Q2219.71 175.6 2221.36 172.544 Q2223.01 169.487 2223.01 166.466 Z" fill="#000000" fill-rule="nonzero" fill-opacity="1"></path><polyline clip-path="url(#clip380)" style="stroke:#008000; stroke-linecap:round; stroke-linejoin:round; stroke-width:12; stroke-opacity:1; fill:none" points="2023.18,264.756 2161.1,264.756 "></polyline>
<path clip-path="url(#clip380)" d="M2219.25 232.887 Q2219.25 232.936 2219.2 232.986 Q2218.88 235.593 2218.27 237.044 Q2217.66 238.47 2216.28 239.134 Q2215.27 239.626 2214.02 239.626 Q2212.12 239.626 2209.39 238.372 Q2209.29 238.322 2208.75 238.077 Q2208.21 237.831 2208.01 237.757 Q2207.82 237.683 2207.4 237.535 Q2206.98 237.363 2206.66 237.314 Q2206.34 237.265 2206.02 237.265 Q2205.33 237.265 2204.74 237.56 Q2203.54 238.15 2202.8 239.036 Q2202.04 239.896 2201.84 241.446 Q2201.79 241.643 2201.62 241.79 Q2201.45 241.938 2201.23 241.938 Q2201.01 241.938 2200.81 241.766 Q2200.61 241.593 2200.61 241.347 Q2200.61 241.298 2200.66 241.249 Q2200.98 238.642 2201.6 237.216 Q2202.21 235.765 2203.59 235.101 Q2204.67 234.584 2205.85 234.584 Q2207.69 234.584 2210.5 235.863 Q2210.6 235.912 2211.14 236.158 Q2211.68 236.404 2211.88 236.478 Q2212.07 236.552 2212.49 236.724 Q2212.91 236.871 2213.23 236.921 Q2213.55 236.97 2213.87 236.97 Q2214.48 236.97 2215.12 236.65 Q2216.33 236.06 2217.09 235.199 Q2217.85 234.338 2218.05 232.789 Q2218.1 232.592 2218.27 232.445 Q2218.44 232.272 2218.66 232.272 Q2218.88 232.272 2219.08 232.469 Q2219.25 232.641 2219.25 232.887 Z" fill="#000000" fill-rule="nonzero" fill-opacity="1"></path><path clip-path="url(#clip380)" d="M2225.05 259.478 Q2225.05 263.658 2223.12 267.804 Q2221.19 271.95 2218.02 275.112 Q2214.9 278.239 2210.61 280.206 Q2206.36 282.174 2202 282.174 Q2201.23 282.174 2199.65 281.998 Q2197.19 294.963 2197.12 295.173 Q2196.8 295.911 2196.17 296.368 Q2195.57 296.825 2195.15 296.93 Q2194.73 297.035 2194.45 297.035 Q2193.75 297.035 2193.04 296.544 Q2192.38 296.087 2192.38 295.033 Q2192.38 294.787 2192.73 293.592 L2196.56 281.506 Q2190.76 280.171 2187.42 276.482 Q2184.08 272.758 2184.08 267.699 Q2184.08 264.466 2185.56 260.25 Q2187.04 256.034 2188.83 253.189 Q2190.62 250.343 2191.64 250.343 Q2192.52 250.343 2192.52 251.081 Q2192.52 251.362 2191.95 251.994 Q2189.11 255.261 2187.53 259.969 Q2185.98 264.642 2185.98 266.891 Q2185.98 270.826 2189 273.672 Q2192.06 276.482 2197.79 277.536 Q2201.19 266.504 2203.23 261.867 Q2207.34 252.662 2212.68 250.413 Q2214.65 249.57 2216.83 249.57 Q2220.76 249.57 2222.91 252.345 Q2225.05 255.086 2225.05 259.478 M2223.01 261.059 Q2223.01 259.196 2222.34 257.615 Q2221.71 256.034 2220.1 254.91 Q2218.48 253.751 2216.13 253.751 Q2211.42 253.751 2207.48 258.283 Q2203.55 262.815 2201.86 269.842 L2200.42 277.642 Q2200.42 277.923 2201.37 277.923 Q2201.93 277.993 2202.67 277.993 Q2206.67 277.993 2210.47 276.482 Q2214.3 274.971 2217 272.582 Q2219.71 270.193 2221.36 267.137 Q2223.01 264.08 2223.01 261.059 Z" fill="#000000" fill-rule="nonzero" fill-opacity="1"></path><polyline clip-path="url(#clip380)" style="stroke:#ff0000; stroke-linecap:round; stroke-linejoin:round; stroke-width:12; stroke-opacity:1; fill:none" stroke-dasharray="48, 30" points="2023.18,350.724 2161.1,350.724 "></polyline>
<path clip-path="url(#clip380)" d="M2219.25 307.996 Q2219.25 308.046 2219.2 308.095 Q2218.88 310.702 2218.27 312.153 Q2217.66 313.579 2216.28 314.243 Q2215.27 314.735 2214.02 314.735 Q2212.12 314.735 2209.39 313.481 Q2209.29 313.432 2208.75 313.186 Q2208.21 312.94 2208.01 312.866 Q2207.82 312.792 2207.4 312.645 Q2206.98 312.472 2206.66 312.423 Q2206.34 312.374 2206.02 312.374 Q2205.33 312.374 2204.74 312.669 Q2203.54 313.259 2202.8 314.145 Q2202.04 315.005 2201.84 316.555 Q2201.79 316.752 2201.62 316.899 Q2201.45 317.047 2201.23 317.047 Q2201.01 317.047 2200.81 316.875 Q2200.61 316.702 2200.61 316.457 Q2200.61 316.407 2200.66 316.358 Q2200.98 313.751 2201.6 312.325 Q2202.21 310.874 2203.59 310.21 Q2204.67 309.693 2205.85 309.693 Q2207.69 309.693 2210.5 310.972 Q2210.6 311.021 2211.14 311.267 Q2211.68 311.513 2211.88 311.587 Q2212.07 311.661 2212.49 311.833 Q2212.91 311.98 2213.23 312.03 Q2213.55 312.079 2213.87 312.079 Q2214.48 312.079 2215.12 311.759 Q2216.33 311.169 2217.09 310.308 Q2217.85 309.447 2218.05 307.898 Q2218.1 307.701 2218.27 307.554 Q2218.44 307.381 2218.66 307.381 Q2218.88 307.381 2219.08 307.578 Q2219.25 307.75 2219.25 307.996 Z" fill="#000000" fill-rule="nonzero" fill-opacity="1"></path><path clip-path="url(#clip380)" d="M2225.05 334.587 Q2225.05 338.767 2223.12 342.913 Q2221.19 347.059 2218.02 350.221 Q2214.9 353.348 2210.61 355.315 Q2206.36 357.283 2202 357.283 Q2201.23 357.283 2199.65 357.107 Q2197.19 370.072 2197.12 370.282 Q2196.8 371.02 2196.17 371.477 Q2195.57 371.934 2195.15 372.039 Q2194.73 372.144 2194.45 372.144 Q2193.75 372.144 2193.04 371.653 Q2192.38 371.196 2192.38 370.142 Q2192.38 369.896 2192.73 368.701 L2196.56 356.615 Q2190.76 355.28 2187.42 351.591 Q2184.08 347.867 2184.08 342.808 Q2184.08 339.576 2185.56 335.36 Q2187.04 331.143 2188.83 328.298 Q2190.62 325.452 2191.64 325.452 Q2192.52 325.452 2192.52 326.19 Q2192.52 326.471 2191.95 327.103 Q2189.11 330.371 2187.53 335.078 Q2185.98 339.751 2185.98 342 Q2185.98 345.935 2189 348.781 Q2192.06 351.591 2197.79 352.645 Q2201.19 341.613 2203.23 336.976 Q2207.34 327.771 2212.68 325.522 Q2214.65 324.679 2216.83 324.679 Q2220.76 324.679 2222.91 327.454 Q2225.05 330.195 2225.05 334.587 M2223.01 336.168 Q2223.01 334.305 2222.34 332.724 Q2221.71 331.143 2220.1 330.019 Q2218.48 328.86 2216.13 328.86 Q2211.42 328.86 2207.48 333.392 Q2203.55 337.924 2201.86 344.951 L2200.42 352.751 Q2200.42 353.032 2201.37 353.032 Q2201.93 353.102 2202.67 353.102 Q2206.67 353.102 2210.47 351.591 Q2214.3 350.081 2217 347.691 Q2219.71 345.302 2221.36 342.246 Q2223.01 339.189 2223.01 336.168 Z" fill="#000000" fill-rule="nonzero" fill-opacity="1"></path><path clip-path="url(#clip380)" d="M2251.8 361.517 Q2251.8 363.755 2250.99 366.264 Q2250.21 368.748 2249.03 370.887 Q2247.87 373.027 2246.27 375.216 Q2244.67 377.405 2243.32 378.954 Q2241.97 380.504 2240.57 381.905 Q2239.8 382.668 2239.46 383.184 Q2239.36 383.332 2239.29 384.488 Q2239.21 385.619 2239.21 386.037 Q2239.21 392.604 2242.29 392.604 Q2244.84 392.604 2248.83 388.669 Q2249.35 388.201 2249.49 388.201 Q2249.79 388.201 2249.94 388.423 Q2250.08 388.644 2250.08 388.816 Q2250.08 389.136 2248.9 390.218 Q2247.75 391.3 2247.03 391.792 Q2244.38 393.71 2242.19 393.71 Q2237.52 393.71 2236.56 385.988 Q2235.52 387.021 2234.74 387.709 Q2233.68 388.767 2233.38 389.013 Q2233.09 389.259 2232.92 389.259 Q2232.7 389.259 2232.5 389.038 Q2232.33 388.816 2232.33 388.619 Q2232.33 388.472 2232.57 388.103 L2236.43 384.439 Q2236.43 376.126 2240.42 367.051 Q2240.69 366.411 2241.08 365.6 Q2241.48 364.764 2242.39 363.239 Q2243.3 361.714 2244.21 360.558 Q2245.14 359.378 2246.39 358.492 Q2247.65 357.582 2248.83 357.582 Q2251.8 357.582 2251.8 361.517 M2250.6 361.321 Q2250.6 358.689 2248.88 358.689 Q2247.77 358.689 2246.91 359.82 Q2246.07 360.952 2244.84 363.436 Q2243.57 366.067 2242.26 370.568 Q2240.98 375.044 2240.44 377.503 Q2239.93 379.962 2239.73 381.069 Q2250.6 369.756 2250.6 361.321 Z" fill="#000000" fill-rule="nonzero" fill-opacity="1"></path></svg>